<svg xmlns="http://www.w3.org/2000/svg" viewBox="0 0 64 64" width="64" height="64" role="img" aria-label="MediVoice">
  <defs>
    <linearGradient id="g" x1="0" y1="0" x2="1" y2="1">
      <stop offset="0" stop-color="#1284FF" />
      <stop offset="1" stop-color="#0B6BCB" />
    </linearGradient>
  </defs>
  <rect width="64" height="64" rx="15" fill="url(#g)" />
  <g fill="none" stroke="#fff" stroke-width="3.6" stroke-linecap="round">
    <path d="M14 32 h6" />
    <path d="M24 24 v16" />
    <path d="M32 16 v32" />
    <path d="M40 22 v20" />
    <path d="M48 28 v8" />
  </g>
  <path d="M50 14 a3 3 0 0 1 3 3 v6 h6 a3 3 0 0 1 0 6 h-6 v6 a3 3 0 0 1-6 0 v-6 h-6 a3 3 0 0 1 0-6 h6 v-6 a3 3 0 0 1 3-3 z" fill="#7FF3C9" transform="translate(-2 -2) scale(0.55)" opacity="0"/>
</svg>
